<?xml version="1.0" standalone="no"?>
<!DOCTYPE svg PUBLIC "-//W3C//DTD SVG 1.1//EN" "http://www.w3.org/Graphics/SVG/1.1/DTD/svg11.dtd" >
<svg xmlns="http://www.w3.org/2000/svg">
<metadata>Generated by IcoMoon</metadata>
<defs>
<font id="icomoon" horiz-adv-x="1024">
<font-face units-per-em="1024" ascent="960" descent="-64" />
<missing-glyph horiz-adv-x="1024" />
<glyph unicode="&#x20;" horiz-adv-x="512" d="" />
<glyph unicode="&#xe900;" glyph-name="BSK_fahrend" d="M768-61.44l-4.34 9.63h-76.654l-2.95-1.341-0.61 1.341h-427.447v948.005l-3.925 8.704 3.925 1.755v41.155h512v-949.931l4.949-10.996-4.949-2.219v-46.104zM280.381-27.429h392.094l-392.094 869.547v-869.547zM506.685 399.555l189.562-420.45 11.118 4.998-187.465 415.793c-2.584-0.414-5.218-0.61-7.875-0.61-1.804-0.024-3.584 0.073-5.339 0.268zM549.059 394.606l180.565-400.482 11.093 4.998-189.464 420.133c-2.536-3.56-5.583-6.729-9.045-9.509l6.851-15.141zM553.862 472.893c0.122 0 0.878-1.317 1.56-2.706 1.512-2.926 2.658-5.949 3.535-8.997l184.661-409.259v871.497h-392.948l203.191-450.536c-0.024 0 0 0 0 0zM492.032 461.726c-5.022-7.241-5.9-16.652-1.755-24.795 3.755-7.339 10.801-12.19 18.846-13.141l-17.091 37.937zM513.999 472.332l17.53-38.888c4.413 5.9 6.046 13.702 3.974 21.114l-3.877 8.265c-3.365 4.974-10.094 8.899-17.627 9.509zM284.331 892.684l187.831-416.549c2.511 3.584 5.534 6.851 9.021 9.679l-185.734 411.867-11.118-4.998zM503.174 496.299l0.122-0.293c4.315 0.805 8.826 0.975 13.214 0.561l-187.733 416.158-11.118-5.022 185.515-411.404z" />
<glyph unicode="&#xe901;" glyph-name="BSK_hgr" d="M268.19 935.619h487.619v-975.238h-487.619z" />
<glyph unicode="&#xe902;" glyph-name="BSK_offen" d="M768-51.81h-512v999.619h512v-999.619zM280.381-27.429h463.238v426.691h-463.238v-426.691zM554.203 423.643h183.32v12.19h-178.298c-1.122-4.315-2.828-8.411-5.022-12.19zM512 423.643c9.021 0 16.896 4.901 21.114 12.19h-42.203c4.194-7.29 12.069-12.19 21.090-12.19zM280.381 423.643h189.416c-2.194 3.779-3.901 7.875-4.998 12.19h-184.418v-12.19zM560.762 460.215h176.762v12.19h-183.32c2.194-3.779 3.877-7.875 4.998-12.19h1.56zM490.886 460.215h42.203c-4.218 7.29-12.093 12.19-21.114 12.19s-16.872-4.901-21.090-12.19zM463.238 460.215h1.536c1.097 4.315 2.804 8.411 4.998 12.19h-189.391v-12.19h182.857zM280.381 496.786h463.238v426.642h-463.238v-426.642z" />
<glyph unicode="&#xe903;" glyph-name="BSK_zu" d="M768-51.81h-512v999.619h512v-999.619zM560.762-27.429h182.857v950.857h-182.857v-950.857zM524.19-27.429h12.19v433.25c-3.779-2.194-7.875-3.877-12.19-4.998v-428.251zM487.619-27.429h12.19v428.227c-4.315 1.122-8.411 2.804-12.19 4.998v-433.225zM280.381-27.429h182.857v950.857h-182.857v-950.857zM524.19 469.138v-42.203c7.29 4.218 12.19 12.093 12.19 21.114s-4.901 16.872-12.19 21.090zM499.81 469.138c-7.29-4.218-12.19-12.093-12.19-21.114s4.901-16.896 12.19-21.114v42.228zM524.19 495.226c4.315-1.097 8.411-2.804 12.19-4.998v433.201h-12.19v-428.203zM487.619 923.429v-433.201c3.779 2.194 7.875 3.901 12.19 4.998v428.203h-12.19z" />
<glyph unicode="&#xe904;" glyph-name="Filterwaechter" d="M512-51.2c-275.251 0-499.2 223.949-499.2 499.2s223.949 499.2 499.2 499.2 499.2-223.949 499.2-499.2-223.949-499.2-499.2-499.2zM186.445 104.346c84.941-80.486 199.578-129.946 325.555-129.946 261.146 0 473.6 212.454 473.6 473.6 0 125.978-49.459 240.614-129.946 325.555l-669.21-669.21zM512 921.6c-261.146 0-473.6-212.454-473.6-473.6 0-125.978 49.434-240.614 129.946-325.555l669.21 669.21c-84.941 80.512-199.578 129.946-325.555 129.946z" />
<glyph unicode="&#xe905;" glyph-name="Filterwaechter_hgr" d="M998.4 448c0-268.631-217.769-486.4-486.4-486.4s-486.4 217.769-486.4 486.4c0 268.631 217.769 486.4 486.4 486.4s486.4-217.769 486.4-486.4z" />
<glyph unicode="&#xe906;" glyph-name="gasbrenner" d="M877.714-51.81h-731.429c-73.947 0-134.095 60.172-134.095 134.095v731.429c0 73.947 60.148 134.095 134.095 134.095h731.429c73.923 0 134.095-60.148 134.095-134.095v-731.429c0-73.923-60.172-134.095-134.095-134.095zM146.286 923.429c-60.489 0-109.714-49.225-109.714-109.714v-731.429c0-60.489 49.225-109.714 109.714-109.714h731.429c60.489 0 109.714 49.225 109.714 109.714v731.429c0 60.489-49.225 109.714-109.714 109.714h-731.429zM896 151.357h-733.452l366.714 631.881z" />
<glyph unicode="&#xe907;" glyph-name="gasbrenner_hgr" d="M24.381 82.286c0-67.34 54.589-121.905 121.905-121.905h731.429c67.34 0 121.905 54.565 121.905 121.905v731.429c0 67.316-54.565 121.905-121.905 121.905h-731.429c-67.316 0-121.905-54.589-121.905-121.905v-731.429z" />
<glyph unicode="&#xe908;" glyph-name="ion" d="M512-39.619c-269.312 0-487.619 218.331-487.619 487.619 0 269.312 218.307 487.619 487.619 487.619 269.288 0 487.619-218.307 487.619-487.619 0-269.288-218.331-487.619-487.619-487.619zM975.238 448c0 255.854-207.409 463.238-463.238 463.238-255.854 0-463.238-207.384-463.238-463.238 0-255.829 207.384-463.238 463.238-463.238 255.829 0 463.238 207.409 463.238 463.238zM448.561 133.851v628.297h126.854v-628.297h-126.854z" />
<glyph unicode="&#xe909;" glyph-name="ion_hgr" d="M999.619 448c0-269.305-218.314-487.619-487.619-487.619s-487.619 218.314-487.619 487.619c0 269.305 218.314 487.619 487.619 487.619s487.619-218.314 487.619-487.619z" />
<glyph unicode="&#xe90a;" glyph-name="Klappe_faehrt" d="M768-51.81h-512v999.619h512v-999.619zM280.381-27.429h463.238v950.857h-463.238v-950.857zM537.819 717.726c14.263-14.287 14.263-37.449 0-51.736-14.287-14.287-37.449-14.287-51.736 0s-14.287 37.425 0 51.712c14.287 14.287 37.425 14.312 51.736 0.024zM339.554 864.256v0zM675.718 510.83l-138.996 138.996c-18.334-10.874-43.764-7.948-59.246 7.558-9.216 9.216-14.287 21.455-14.287 34.475 0 8.85 2.365 17.335 6.754 24.771l-138.996 138.996 17.237 17.237 138.996-138.996c18.31 10.898 43.739 7.948 59.246-7.534 16.018-16.043 18.53-40.57 7.534-59.246l138.996-139.020-17.237-17.237zM488.399 698.173c-0.536-2.024-0.829-4.145-0.829-6.315 0-6.51 2.536-12.629 7.144-17.237 6.12-6.12 15.36-8.509 23.552-6.315l-29.867 29.867zM505.637 715.41l29.867-29.842c2.146 8.119 0.049 17.189-6.315 23.552-6.144 6.12-15.433 8.509-23.552 6.29zM486.107 178.347c-14.263 14.287-14.287 37.425 0 51.712s37.449 14.287 51.712 0c14.287-14.287 14.287-37.425 0-51.712s-37.449-14.287-51.712 0zM684.349 31.817v0zM675.742 23.186l-138.996 138.996c-18.408-10.801-43.788-7.924-59.27 7.558-16.043 16.043-18.554 40.57-7.534 59.246l-139.020 139.020 17.237 17.237 139.020-138.996c18.383 10.801 43.813 7.899 59.246-7.558 16.043-16.018 18.554-40.546 7.534-59.246l139.020-139.020-17.237-17.237zM488.399 210.53c-2.146-8.143-0.049-17.164 6.315-23.552 6.144-6.12 15.409-8.533 23.552-6.315l-29.867 29.867zM505.637 227.767l29.867-29.867c2.17 8.143 0.049 17.189-6.315 23.552-6.12 6.12-15.384 8.558-23.552 6.315z" />
<glyph unicode="&#xe90b;" glyph-name="Klappe_offen" d="M768-51.81h-512v999.619h512v-999.619zM280.381-27.429h463.238v950.857h-463.238v-950.857zM511.976 655.287c-20.187 0-36.571 16.384-36.571 36.571 0 20.212 16.384 36.571 36.571 36.571 20.212 0 36.571-16.36 36.571-36.571-0.024-20.187-16.36-36.571-36.571-36.571zM755.761 691.858v0zM511.976 643.096c-22.674 0-41.789 15.555-47.226 36.571h-196.584v24.381h196.584c5.413 21.016 24.527 36.571 47.226 36.571s41.765-15.555 47.202-36.571h196.584v-24.381h-196.584c-5.437-21.016-24.527-36.571-47.202-36.571zM490.862 679.668c4.218-7.29 12.093-12.19 21.114-12.19 8.997 0 16.872 4.901 21.090 12.19h-42.203zM490.862 704.049h42.203c-4.218 7.29-12.093 12.19-21.090 12.19-9.021 0-16.896-4.901-21.114-12.19zM511.951 167.643c-20.187 0-36.571 16.36-36.571 36.571s16.384 36.571 36.571 36.571c20.212 0 36.571-16.36 36.571-36.571s-16.36-36.571-36.571-36.571zM755.761 204.215v0zM511.951 155.453c-22.674 0-41.789 15.579-47.226 36.571h-196.584v24.381h196.584c5.413 20.992 24.527 36.571 47.226 36.571s41.789-15.579 47.226-36.571h196.584v-24.381h-196.584c-5.437-20.992-24.552-36.571-47.226-36.571zM490.837 192.024c4.218-7.29 12.093-12.19 21.114-12.19s16.896 4.901 21.114 12.19h-42.228zM490.837 216.405h42.203c-4.218 7.29-12.093 12.19-21.114 12.19s-16.872-4.901-21.090-12.19z" />
<glyph unicode="&#xe90c;" d="M268.19 935.619h487.619v-975.238h-487.619z" />
<glyph unicode="&#xe90d;" d="M768-51.81h-512v999.619h512v-999.619zM280.381-27.429h463.238v950.857h-463.238v-950.857z" />
<glyph unicode="&#xe90e;" d="M511.976 655.287c-20.187 0-36.571 16.384-36.571 36.571 0 20.212 16.384 36.571 36.571 36.571 20.212 0 36.571-16.36 36.571-36.571-0.024-20.187-16.36-36.571-36.571-36.571zM755.761 691.858v0z" />
<glyph unicode="&#xe90f;" d="M511.976 643.096c-22.674 0-41.789 15.555-47.226 36.571h-196.584v24.381h196.584c5.413 21.016 24.527 36.571 47.226 36.571s41.765-15.555 47.202-36.571h196.584v-24.381h-196.584c-5.437-21.016-24.527-36.571-47.202-36.571zM490.862 679.668c4.218-7.29 12.093-12.19 21.114-12.19 8.997 0 16.872 4.901 21.090 12.19h-42.203zM490.862 704.049h42.203c-4.218 7.29-12.093 12.19-21.090 12.19-9.021 0-16.896-4.901-21.114-12.19z" />
<glyph unicode="&#xe910;" d="M511.951 167.643c-20.187 0-36.571 16.36-36.571 36.571s16.384 36.571 36.571 36.571c20.212 0 36.571-16.36 36.571-36.571s-16.36-36.571-36.571-36.571zM755.761 204.215v0z" />
<glyph unicode="&#xe911;" d="M511.951 155.453c-22.674 0-41.789 15.579-47.226 36.571h-196.584v24.381h196.584c5.413 20.992 24.527 36.571 47.226 36.571s41.789-15.579 47.226-36.571h196.584v-24.381h-196.584c-5.437-20.992-24.552-36.571-47.226-36.571zM490.837 192.024c4.218-7.29 12.093-12.19 21.114-12.19s16.896 4.901 21.114 12.19h-42.228zM490.837 216.405h42.203c-4.218 7.29-12.093 12.19-21.114 12.19s-16.872-4.901-21.090-12.19z" />
<glyph unicode="&#xe912;" glyph-name="Klappe_zu" d="M768-51.81h-512v999.619h512v-999.619zM280.381-27.429h463.238v950.857h-463.238v-950.857zM475.38 691.858c0 20.187 16.384 36.571 36.571 36.571 20.212 0 36.571-16.384 36.571-36.571 0-20.212-16.36-36.571-36.571-36.571-20.187 0-36.571 16.36-36.571 36.571zM511.951 448.049v0zM524.142 448.049h-24.381v196.584c-21.016 5.413-36.571 24.527-36.571 47.226s15.555 41.789 36.571 47.226v196.584h24.381v-196.584c20.992-5.413 36.571-24.527 36.571-47.226s-15.579-41.789-36.571-47.226v-196.584zM524.142 712.972v-42.203c7.29 4.218 12.19 12.093 12.19 21.114s-4.901 16.872-12.19 21.090zM499.761 712.972c-7.29-4.218-12.19-12.093-12.19-21.114s4.901-16.896 12.19-21.114v42.228zM475.38 204.215c0 20.187 16.36 36.571 36.571 36.571s36.571-16.384 36.571-36.571c0-20.212-16.36-36.571-36.571-36.571s-36.571 16.36-36.571 36.571zM511.951-39.595v0zM524.142-39.595h-24.381v196.584c-21.016 5.437-36.571 24.527-36.571 47.226s15.555 41.789 36.571 47.226v196.584h24.381v-196.584c20.992-5.437 36.571-24.527 36.571-47.226s-15.579-41.789-36.571-47.226v-196.584zM524.142 225.329v-42.228c7.29 4.242 12.19 12.117 12.19 21.114s-4.901 16.872-12.19 21.114zM499.761 225.329c-7.29-4.242-12.19-12.117-12.19-21.114s4.901-16.872 12.19-21.114v42.228z" />
<glyph unicode="&#xe913;" d="M268.19 935.619h487.619v-975.238h-487.619z" />
<glyph unicode="&#xe914;" d="M768-51.81h-512v999.619h512v-999.619zM280.381-27.429h463.238v950.857h-463.238v-950.857z" />
<glyph unicode="&#xe915;" d="M475.38 691.858c0 20.187 16.384 36.571 36.571 36.571 20.212 0 36.571-16.384 36.571-36.571 0-20.212-16.36-36.571-36.571-36.571-20.187 0-36.571 16.36-36.571 36.571zM511.951 448.049v0z" />
<glyph unicode="&#xe916;" d="M524.142 448.049h-24.381v196.584c-21.016 5.413-36.571 24.527-36.571 47.226s15.555 41.789 36.571 47.226v196.584h24.381v-196.584c20.992-5.413 36.571-24.527 36.571-47.226s-15.579-41.789-36.571-47.226v-196.584zM524.142 712.972v-42.203c7.29 4.218 12.19 12.093 12.19 21.114s-4.901 16.872-12.19 21.090zM499.761 712.972c-7.29-4.218-12.19-12.093-12.19-21.114s4.901-16.896 12.19-21.114v42.228z" />
<glyph unicode="&#xe917;" d="M548.523 204.215c0-20.187-16.36-36.571-36.571-36.571s-36.571 16.384-36.571 36.571c0 20.212 16.36 36.571 36.571 36.571s36.571-16.36 36.571-36.571zM511.951 448.024v0z" />
<glyph unicode="&#xe918;" d="M524.142-39.595h-24.381v196.584c-21.016 5.437-36.571 24.527-36.571 47.226s15.555 41.789 36.571 47.226v196.584h24.381v-196.584c20.992-5.437 36.571-24.527 36.571-47.226s-15.579-41.789-36.571-47.226v-196.584zM524.142 225.329v-42.228c7.29 4.242 12.19 12.117 12.19 21.114s-4.901 16.872-12.19 21.114zM499.761 225.329c-7.29-4.242-12.19-12.117-12.19-21.114s4.901-16.872 12.19-21.114v42.228z" />
<glyph unicode="&#xe919;" glyph-name="motor" d="M512-39.619c-269.312 0-487.619 218.331-487.619 487.619 0 269.312 218.307 487.619 487.619 487.619 269.288 0 487.619-218.307 487.619-487.619 0-269.288-218.331-487.619-487.619-487.619zM975.238 448c0 255.854-207.409 463.238-463.238 463.238-255.854 0-463.238-207.384-463.238-463.238 0-255.829 207.384-463.238 463.238-463.238 255.829 0 463.238 207.409 463.238 463.238zM208.579 133.851v628.297h189.854l114.005-428.568 112.738 428.568h190.293v-628.297h-117.858v494.568l-124.709-494.568h-122.149l-124.343 494.568v-494.568h-117.833z" />
<glyph unicode="&#xe91a;" glyph-name="motor_hgr" d="M999.619 448c0-269.305-218.314-487.619-487.619-487.619s-487.619 218.314-487.619 487.619c0 269.305 218.314 487.619 487.619 487.619s487.619-218.314 487.619-487.619z" />
<glyph unicode="&#xe91b;" glyph-name="pumpe" d="M512-39.619c-269.312 0-487.619 218.331-487.619 487.619 0 269.312 218.307 487.619 487.619 487.619 269.288 0 487.619-218.307 487.619-487.619 0-269.288-218.331-487.619-487.619-487.619zM975.238 448c0 255.854-207.409 463.238-463.238 463.238-255.854 0-463.238-207.384-463.238-463.238 0-255.829 207.384-463.238 463.238-463.238 255.829 0 463.238 207.409 463.238 463.238zM518.754 911.238l456.485-463.067-456.802-463.409v926.135z" />
<glyph unicode="&#xe91c;" glyph-name="pumpe_hgr" d="M999.619 448c0-269.305-218.314-487.619-487.619-487.619s-487.619 218.314-487.619 487.619c0 269.305 218.314 487.619 487.619 487.619s487.619-218.314 487.619-487.619z" />
<glyph unicode="&#xe91d;" glyph-name="Vav" d="M1011.81-51.81h-999.619v999.619h999.619v-999.619zM36.571-27.429h950.857v316.952h-268.556c-6.339-108.617-96.719-195.048-206.872-195.048-110.178 0-200.558 86.43-206.872 195.048h-268.556v-316.952zM329.557 289.524c6.29-95.159 85.723-170.667 182.443-170.667 96.744 0 176.177 75.508 182.443 170.667h-364.885zM36.571 313.905h950.857v268.19h-950.857v-268.19zM718.872 606.476h268.556v316.952h-950.857v-316.952h268.532c6.339 108.617 96.695 195.048 206.872 195.048 110.202 0 200.582-86.43 206.897-195.048zM329.557 606.476h364.91c-6.29 95.159-85.723 170.667-182.443 170.667-96.744 0-176.177-75.508-182.467-170.667z" />
<glyph unicode="&#xe91e;" glyph-name="Vav_hgr" d="M24.381 935.619h975.238v-975.238h-975.238z" />
<glyph unicode="&#xe91f;" glyph-name="Ventil" d="M579.048 338.286c-60.587 0-109.714 49.128-109.714 109.714s49.128 109.714 109.714 109.714 109.714-49.128 109.714-109.714-49.128-109.714-109.714-109.714zM700.952 448c0 67.218-54.686 121.905-121.905 121.905s-121.905-54.686-121.905-121.905 54.686-121.905 121.905-121.905 121.905 54.686 121.905 121.905zM676.571 448c0-53.784-43.739-97.524-97.524-97.524s-97.524 43.739-97.524 97.524 43.739 97.524 97.524 97.524 97.524-43.739 97.524-97.524zM469.333 472.381h-146.286v-48.762h146.286v48.762zM335.238 387.048v121.905c0 33.597-27.355 60.952-60.952 60.952h-121.905c-33.597 0-60.952-27.355-60.952-60.952v-121.905c0-33.621 27.355-60.952 60.952-60.952h121.905c33.597 0 60.952 27.331 60.952 60.952zM274.286 545.524c20.163 0 36.571-16.408 36.571-36.571v-121.905c0-20.163-16.408-36.571-36.571-36.571h-121.905c-20.163 0-36.571 16.408-36.571 36.571v121.905c0 20.163 16.408 36.571 36.571 36.571h121.905zM335.238 387.048v121.905c0 33.597-27.355 60.952-60.952 60.952h-121.905c-33.597 0-60.952-27.355-60.952-60.952v-121.905c0-33.621 27.355-60.952 60.952-60.952h121.905c33.597 0 60.952 27.331 60.952 60.952zM274.286 545.524c20.163 0 36.571-16.408 36.571-36.571v-121.905c0-20.163-16.408-36.571-36.571-36.571h-121.905c-20.163 0-36.571 16.408-36.571 36.571v121.905c0 20.163 16.408 36.571 36.571 36.571h121.905zM172.032 396.776v89.137l30.281-89.137h12.507l30.427 87.65v-87.65h13.361v104.716h-18.651l-25.064-72.85c-2.536-7.387-4.389-12.971-5.583-16.774-1.048 3.438-2.706 8.606-4.998 15.506l-24.795 74.142h-20.846v-104.716h13.361zM857.6 853.528l1.853 2.974-0.268 54.735h-560.518v-54.76l203.678-329.557 20.748 12.8-200.046 323.706v23.43h511.854l0.122-23.454-200.216-323.633 20.724-12.824 202.069 326.583zM859.453 39.473l-203.922 329.606-20.724-12.8 200.216-323.633-0.122-23.503h-511.854v23.454l200.070 323.657-20.748 12.8-203.703-329.557v-54.735h560.518l0.268 54.711z" />
<glyph unicode="&#xe920;" glyph-name="Ventil_hgr" d="M579.048 338.286c-60.587 0-109.714 49.128-109.714 109.714s49.128 109.714 109.714 109.714 109.714-49.128 109.714-109.714-49.128-109.714-109.714-109.714zM700.952 448c0 67.218-54.686 121.905-121.905 121.905s-121.905-54.686-121.905-121.905 54.686-121.905 121.905-121.905 121.905 54.686 121.905 121.905zM676.571 448c0-53.784-43.739-97.524-97.524-97.524s-97.524 43.739-97.524 97.524 43.739 97.524 97.524 97.524 97.524-43.739 97.524-97.524zM645.169 533.333l202.069 326.607-0.195 39.107h-536.186v-39.107l201.874-326.607zM512.731 362.667l-201.874-326.607v-39.107h536.186l0.195 39.107-202.069 326.607z" />
<glyph unicode="&#xe921;" glyph-name="Ventil3" d="M524.19 338.286c-60.587 0-109.714 49.128-109.714 109.714s49.128 109.714 109.714 109.714 109.714-49.128 109.714-109.714-49.128-109.714-109.714-109.714zM646.095 448c0 67.218-54.686 121.905-121.905 121.905s-121.905-54.686-121.905-121.905 54.686-121.905 121.905-121.905 121.905 54.686 121.905 121.905zM621.714 448c0-53.784-43.739-97.524-97.524-97.524s-97.524 43.739-97.524 97.524 43.739 97.524 97.524 97.524 97.524-43.739 97.524-97.524zM414.476 472.381h-146.286v-48.762h146.286v48.762zM48.762 387.048c0-26.917 21.845-48.762 48.762-48.762h121.905c26.917 0 48.762 21.845 48.762 48.762v121.905c0 26.917-21.845 48.762-48.762 48.762h-121.905c-26.917 0-48.762-21.845-48.762-48.762v-121.905zM48.762 387.048c0-26.917 21.845-48.762 48.762-48.762h121.905c26.917 0 48.762 21.845 48.762 48.762v121.905c0 26.917-21.845 48.762-48.762 48.762h-121.905c-26.917 0-48.762-21.845-48.762-48.762v-121.905zM802.743 853.528l1.853 2.974-0.268 54.735h-560.518v-54.76l203.678-329.557 20.748 12.8-200.046 323.706v23.43h511.854l0.122-23.454-200.216-323.633 20.724-12.824 202.069 326.583zM804.596 39.473l-203.922 329.606-20.724-12.8 200.216-323.633-0.122-23.503h-511.854v23.454l200.070 323.657-20.748 12.8-203.703-329.557v-54.735h560.518l0.268 54.711zM999.619 167.863v560.518h-54.735l-329.582-203.678 12.8-20.748 323.682 200.046h23.454v-511.854l-23.479-0.122-323.633 200.216-12.8-20.724 329.582-203.922 54.711 0.268z" />
<glyph unicode="&#xe922;" glyph-name="Ventil3_hgr" d="M524.19 338.286c-60.587 0-109.714 49.128-109.714 109.714s49.128 109.714 109.714 109.714 109.714-49.128 109.714-109.714-49.128-109.714-109.714-109.714zM646.095 448c0 67.218-54.686 121.905-121.905 121.905s-121.905-54.686-121.905-121.905 54.686-121.905 121.905-121.905 121.905 54.686 121.905 121.905zM621.714 448c0-53.784-43.739-97.524-97.524-97.524s-97.524 43.739-97.524 97.524 43.739 97.524 97.524 97.524 97.524-43.739 97.524-97.524zM590.312 533.333l202.069 326.607-0.195 39.107h-536.186v-39.107l201.874-326.607zM457.874 362.667l-201.874-326.607v-39.107h536.186l0.195 39.107-202.069 326.607zM621.714 381.879l326.607-202.069 39.107 0.195v536.186h-39.107l-326.607-201.85z" />
<glyph unicode="&#xe923;" glyph-name="ventilator" d="M512-39.619c-269.312 0-487.619 218.331-487.619 487.619 0 269.312 218.307 487.619 487.619 487.619 269.288 0 487.619-218.307 487.619-487.619 0-269.288-218.331-487.619-487.619-487.619zM975.238 448c0 255.854-207.409 463.238-463.238 463.238-255.854 0-463.238-207.384-463.238-463.238 0-255.829 207.384-463.238 463.238-463.238 255.829 0 463.238 207.409 463.238 463.238zM282.014 45.836v804.352l693.224-402.188-693.224-402.164zM928.134 448l-620.056 359.741v-719.482l620.056 359.741z" />
<glyph unicode="&#xe924;" glyph-name="ventilator_hgr" d="M999.619 448c0-269.305-218.314-487.619-487.619-487.619s-487.619 218.314-487.619 487.619c0 269.305 218.314 487.619 487.619 487.619s487.619-218.314 487.619-487.619z" />
<glyph unicode="&#xe925;" glyph-name="Zaehler" horiz-adv-x="1972" d="M1953.185-45.037h-1934.222v986.074h1934.222v-986.074zM56.889-7.111h1858.37v910.222h-1858.37v-910.222zM1934.222 922.074l-1896.296-948.148h1896.296z" />
<glyph unicode="&#xe926;" glyph-name="zaehler_hgr" horiz-adv-x="1972" d="M37.926 922.074h1896.296v-948.148h-1896.296z" />
</font>
</defs>
</svg>
